name rise30.6535peak61.5555fall82.9339.mot
datacolumns 19
datarows 26
range 21.01659200000000 21.05825100000000
endheader
time	ground_force1_vx	ground_force1_vy	ground_force1_vz	ground_force1_px	ground_force1_py	ground_force1_pz	ground_force2_vx	ground_force2_vy	ground_force2_vz	ground_force2_px	ground_force2_py	ground_force2_pz	ground_torque1_x	ground_torque1_y	ground_torque1_z	ground_torque2_x	ground_torque2_y	ground_torque2_z	
21.01659200000000	-41.03826800000000	800.29176900000004	52.63385400000000	0.15505900000000	0.00000000000000	0.08929100000000	-1.99697600000000	6.98387500000000	1.19157600000000	0.00000000000000	0.00000000000000	0.00000000000000	0.00000000000000	23.67440000000000	0.00000000000000	0.00000000000000	0.23737400000000	0.00000000000000	
21.01824700000000	-41.47144200000000	798.26740099999995	52.45831100000000	0.15416500000000	0.00000000000000	0.08920700000000	-2.84786600000000	11.06912400000000	1.74601300000000	0.00000000000000	0.00000000000000	0.00000000000000	0.00000000000000	23.55207000000000	0.00000000000000	0.00000000000000	0.35488100000000	0.00000000000000	
21.01991200000000	-41.91673700000000	796.14704900000004	52.26468500000000	0.15328000000000	0.00000000000000	0.08912000000000	-3.77174500000000	15.82032200000000	2.36111600000000	0.00000000000000	0.00000000000000	0.00000000000000	0.00000000000000	23.42848100000000	0.00000000000000	0.00000000000000	0.48720700000000	0.00000000000000	
21.02159000000000	-42.37458300000000	793.93062699999996	52.05290300000000	0.15240600000000	0.00000000000000	0.08902800000000	-4.73615400000000	21.16433800000000	3.01910600000000	0.00000000000000	0.00000000000000	0.00000000000000	0.00000000000000	23.30383200000000	0.00000000000000	0.00000000000000	0.63113000000000	0.00000000000000	
21.02324500000000	-42.84536700000000	791.61797600000000	51.82292300000000	0.15154400000000	0.00000000000000	0.08893200000000	-5.70418200000000	27.00249200000000	3.69909500000000	0.31824100000000	0.00000000000000	-0.09963100000000	0.00000000000000	23.17831500000000	0.00000000000000	0.00000000000000	1.39164500000000	0.00000000000000	
21.02491900000000	-43.32941800000000	789.20885899999996	51.57473300000000	0.15069400000000	0.00000000000000	0.08883200000000	-6.63710700000000	33.21885600000000	4.37862300000000	0.32541700000000	0.00000000000000	-0.10019200000000	0.00000000000000	23.05211000000000	0.00000000000000	0.00000000000000	1.69770300000000	0.00000000000000	
21.02657900000000	-43.82701300000000	786.70295399999998	51.30835500000000	0.14985700000000	0.00000000000000	0.08872700000000	-7.49726900000000	39.69022200000000	5.03536500000000	0.33206300000000	0.00000000000000	-0.10068400000000	0.00000000000000	22.92538700000000	0.00000000000000	0.00000000000000	2.00919400000000	0.00000000000000	
21.02824800000000	-44.33836800000000	784.09984899999995	51.02384100000000	0.14903400000000	0.00000000000000	0.08861800000000	-8.25076800000000	46.29632200000000	5.64877000000000	0.33824600000000	0.00000000000000	-0.10111800000000	0.00000000000000	22.79830500000000	0.00000000000000	0.00000000000000	2.31766500000000	0.00000000000000	
21.02991400000000	-44.86363600000000	781.39904000000001	50.72127500000000	0.14822600000000	0.00000000000000	0.08850400000000	-8.86964800000000	52.92893400000000	6.20143100000000	0.34402300000000	0.00000000000000	-0.10150400000000	0.00000000000000	22.67101300000000	0.00000000000000	0.00000000000000	2.61539800000000	0.00000000000000	
21.03158000000000	-45.40290800000000	778.59992699999998	50.40077300000000	0.14743300000000	0.00000000000000	0.08838600000000	-9.33336600000000	59.49891700000000	6.68003200000000	0.34943900000000	0.00000000000000	-0.10184800000000	0.00000000000000	22.54364400000000	0.00000000000000	0.00000000000000	2.89590000000000	0.00000000000000	
21.03324500000000	-45.95620500000000	775.70180900000003	50.06248000000000	0.14665500000000	0.00000000000000	0.08826400000000	-9.62945300000000	65.94067200000001	7.07584300000000	0.35453000000000	0.00000000000000	-0.10215800000000	0.00000000000000	22.41631900000000	0.00000000000000	0.00000000000000	3.15423600000000	0.00000000000000	
21.03491200000000	-46.52347700000000	772.70388600000001	49.70657300000000	0.14589300000000	0.00000000000000	0.08813700000000	-9.75342500000000	72.21397800000000	7.38475000000000	0.35932800000000	0.00000000000000	-0.10243900000000	0.00000000000000	22.28914400000000	0.00000000000000	0.00000000000000	3.38717600000000	0.00000000000000	
21.03659500000000	-47.10460400000000	769.60525600000005	49.33325900000000	0.14514800000000	0.00000000000000	0.08800500000000	-9.70806000000000	78.30343700000000	7.60691500000000	0.36385600000000	0.00000000000000	-0.10269400000000	0.00000000000000	22.16221000000000	0.00000000000000	0.00000000000000	3.59318100000000	0.00000000000000	
21.03824700000000	-47.69938600000000	766.40491299999996	48.94277400000000	0.14441900000000	0.00000000000000	0.08787000000000	-9.50220400000000	84.21596599999999	7.74613300000000	0.36813700000000	0.00000000000000	-0.10292800000000	0.00000000000000	22.03559300000000	0.00000000000000	0.00000000000000	3.77224700000000	0.00000000000000	
21.03991600000000	-48.30754800000000	763.10175100000004	48.53538200000000	0.14370700000000	0.00000000000000	0.08772900000000	-9.14928700000000	89.97689300000000	7.80900100000000	0.37218700000000	0.00000000000000	-0.10314400000000	0.00000000000000	21.90935300000000	0.00000000000000	0.00000000000000	3.92564800000000	0.00000000000000	
21.04159800000000	-48.92873500000000	759.69456300000002	48.11137700000000	0.14301200000000	0.00000000000000	0.08758500000000	-8.66572100000000	95.62520100000000	7.80400800000000	0.37602300000000	0.00000000000000	-0.10334500000000	0.00000000000000	21.78353500000000	0.00000000000000	0.00000000000000	4.05561000000000	0.00000000000000	
21.04325400000000	-49.56250900000000	756.18204400000002	47.67107900000000	0.14233300000000	0.00000000000000	0.08743700000000	-8.06933500000000	101.20849500000000	7.74061300000000	0.37965700000000	0.00000000000000	-0.10353200000000	0.00000000000000	21.65816500000000	0.00000000000000	0.00000000000000	4.16496300000000	0.00000000000000	
21.04491300000000	-50.20835000000000	752.56279099999995	47.21483500000000	0.14167000000000	0.00000000000000	0.08728400000000	-7.37796200000000	106.77811300000000	7.62841400000000	0.38310100000000	0.00000000000000	-0.10370800000000	0.00000000000000	21.53325600000000	0.00000000000000	0.00000000000000	4.25679600000000	0.00000000000000	
21.04659200000000	-50.86565100000000	748.83531300000004	46.74301700000000	0.14102400000000	0.00000000000000	0.08712700000000	-6.60827400000000	112.38477399999999	7.47644400000000	0.38636300000000	0.00000000000000	-0.10387500000000	0.00000000000000	21.40880300000000	0.00000000000000	0.00000000000000	4.33414900000000	0.00000000000000	
21.04825100000000	-51.53372100000000	744.99802799999998	46.25602200000000	0.14039400000000	0.00000000000000	0.08696700000000	-5.77490200000000	118.07499500000000	7.29262400000000	0.38945400000000	0.00000000000000	-0.10403300000000	0.00000000000000	21.28478300000000	0.00000000000000	0.00000000000000	4.39976200000000	0.00000000000000	
21.04991500000000	-52.21178100000000	741.04927399999997	45.75427100000000	0.13978000000000	0.00000000000000	0.08680300000000	-4.88987000000000	123.88843000000000	7.08340100000000	0.39238000000000	0.00000000000000	-0.10418500000000	0.00000000000000	21.16116000000000	0.00000000000000	0.00000000000000	4.45588600000000	0.00000000000000	
21.05159400000000	-52.89896300000000	736.98730999999998	45.23820600000000	0.13918100000000	0.00000000000000	0.08663500000000	-3.96232600000000	129.85616500000000	6.85356000000000	0.39514700000000	0.00000000000000	-0.10433000000000	0.00000000000000	21.03788100000000	0.00000000000000	0.00000000000000	4.50416500000000	0.00000000000000	
21.05324900000000	-53.59431400000000	732.81032700000003	44.70829200000000	0.13859600000000	0.00000000000000	0.08646400000000	-2.99853100000000	135.99992399999999	6.60618700000000	0.39776300000000	0.00000000000000	-0.10447100000000	0.00000000000000	20.91487500000000	0.00000000000000	0.00000000000000	4.54558600000000	0.00000000000000	
21.05491300000000	-54.29679100000000	728.51645399999995	44.16501300000000	0.13802500000000	0.00000000000000	0.08628900000000	-2.00208100000000	142.33208600000000	6.34277300000000	0.40023200000000	0.00000000000000	-0.10460800000000	0.00000000000000	20.79206000000000	0.00000000000000	0.00000000000000	4.58049200000000	0.00000000000000	
21.05659500000000	-55.00526500000000	724.10376699999995	43.60887200000000	0.13746700000000	0.00000000000000	0.08611100000000	-0.97426900000000	148.85636299999999	6.06340600000000	0.40255900000000	0.00000000000000	-0.10474200000000	0.00000000000000	20.66933400000000	0.00000000000000	0.00000000000000	4.60863300000000	0.00000000000000	
21.05825100000000	-55.71851900000000	719.57029699999998	43.04039100000000	0.13692200000000	0.00000000000000	0.08593100000000	0.08542500000000	155.56896399999999	5.76704700000000	0.40474900000000	0.00000000000000	-0.10487300000000	0.00000000000000	20.54658700000000	0.00000000000000	0.00000000000000	4.62927000000000	0.00000000000000	
